<svg xml:space="preserve" viewBox="43.006488000000004 104.444328 426.992988 217.080368" xmlns:xlink="http://www.w3.org/1999/xlink" xmlns="http://www.w3.org/2000/svg" id="Layer_1" version="1.1" style="max-height: 500px" width="426.992988" height="217.080368">
<rect height="426.65" width="426.67" style="fill:#965353;" y="85.332" x="42.656"/>
<rect height="106.67" width="106.67" style="fill:#A85D5D;" y="319.992" x="42.656"/>
<rect height="106.67" width="106.65" style="fill:#FFD2A6;" y="319.992" x="149.329"/>
<rect height="106.67" width="106.66" style="fill:#A85D5D;" y="319.992" x="255.979"/>
<g>
	<rect height="106.67" width="106.68" style="fill:#FFD2A6;" y="319.992" x="362.639"/>
	<rect height="106.66" width="106.67" style="fill:#FFD2A6;" y="213.332" x="42.656"/>
</g>
<rect height="106.66" width="106.65" style="fill:#A85D5D;" y="213.332" x="149.329"/>
<rect height="106.66" width="106.66" style="fill:#FFD2A6;" y="213.332" x="255.979"/>
<g>
	<rect height="106.66" width="106.68" style="fill:#A85D5D;" y="213.332" x="362.639"/>
	<rect height="106.67" width="106.67" style="fill:#A85D5D;" y="106.662" x="42.656"/>
</g>
<rect height="106.67" width="106.65" style="fill:#FFD2A6;" y="106.662" x="149.329"/>
<rect height="106.67" width="106.66" style="fill:#A85D5D;" y="106.662" x="255.979"/>
<g>
	<rect height="106.67" width="106.68" style="fill:#FFD2A6;" y="106.662" x="362.639"/>
	<rect height="106.66" width="106.67" style="fill:#FFD2A6;" x="42.656"/>
</g>
<rect height="106.66" width="106.65" style="fill:#A85D5D;" x="149.329"/>
<rect height="106.66" width="106.66" style="fill:#FFD2A6;" x="255.979"/>
<rect height="106.66" width="106.68" style="fill:#A85D5D;" x="362.639"/>
<path d="M263.525,472.437c4.171,4.172,4.171,10.922,0,15.094c-4.156,4.156-10.923,4.156-15.078,0&#10;&#9;c-4.172-4.172-4.172-10.922,0-15.094C252.602,468.281,259.369,468.281,263.525,472.437z" style="fill:#FFCE54;"/>
<g>
	<path d="M127.982,53.334c0,17.672-14.312,31.999-31.999,31.999c-17.672,0-31.999-14.327-31.999-31.999&#10;&#9;&#9;c0-17.679,14.327-31.999,31.999-31.999C113.67,21.336,127.982,35.656,127.982,53.334z" style="fill:#ED5564;"/>
	<circle r="31.999" cy="159.992" cx="202.649" style="fill:#ED5564;"/>
	<path d="M340.921,53.717c0,17.672-14.312,31.999-31.999,31.999c-17.656,0-31.999-14.327-31.999-31.999&#10;&#9;&#9;c0-17.671,14.343-31.999,31.999-31.999C326.608,21.719,340.921,36.046,340.921,53.717z" style="fill:#ED5564;"/>
	<path d="M447.979,159.995c0,17.671-14.312,31.999-31.999,31.999c-17.687,0-31.998-14.328-31.998-31.999&#10;&#9;&#9;s14.312-31.999,31.998-31.999C433.668,127.996,447.979,142.324,447.979,159.995z" style="fill:#ED5564;"/>
</g>
<g>
	<path d="M341.326,266.656c0,17.68-14.343,32.006-31.998,32.006c-17.688,0-31.999-14.326-31.999-32.006&#10;&#9;&#9;c0-17.671,14.312-32,31.999-32C326.983,234.657,341.326,248.985,341.326,266.656z" style="fill:#434A54;"/>
	<path d="M127.982,266.656c0,17.68-14.312,32.006-31.999,32.006c-17.672,0-31.999-14.326-31.999-32.006&#10;&#9;&#9;c0-17.671,14.327-32,31.999-32C113.67,234.657,127.982,248.985,127.982,266.656z" style="fill:#434A54;"/>
	<path d="M234.65,373.316c0,17.688-14.328,31.998-31.999,31.998s-31.999-14.311-31.999-31.998&#10;&#9;&#9;c0-17.672,14.328-31.998,31.999-31.998S234.65,355.644,234.65,373.316z" style="fill:#434A54;"/>
	<path d="M447.979,373.316c0,17.688-14.312,31.998-31.999,31.998c-17.687,0-31.998-14.311-31.998-31.998&#10;&#9;&#9;c0-17.672,14.312-31.998,31.998-31.998C433.668,341.318,447.979,355.644,447.979,373.316z" style="fill:#434A54;"/>
</g>
<rect height="21.328" width="426.67" style="fill:#7F4545;" y="426.662" x="42.656"/>
</svg>